<svg id="Layer_1" data-name="Layer 1" xmlns="http://www.w3.org/2000/svg" width="347.77" height="318.89" viewBox="0 0 347.77 318.89"><defs><style>.cls-1{fill:#686868;stroke:#333;stroke-miterlimit:10;stroke-width:5.63px;}.cls-2{fill:#b3b3b3;}.cls-3{fill:#333;}.cls-4{fill:#0a2a66;}.cls-5{fill:#304752;}.cls-6{fill:#568292;}</style></defs><title>CPU to memory copy</title><rect class="cls-1" x="29.15" y="90.04" width="287.25" height="112.8" transform="translate(26.34 319.21) rotate(-90)"/><polygon class="cls-2" points="96.22 277.13 96.22 280.04 116.43 281.93 116.43 275.08 96.22 277.13"/><polygon class="cls-2" points="96.22 265.64 96.22 268.56 116.43 270.44 116.43 263.59 96.22 265.64"/><polygon class="cls-2" points="96.22 254.16 96.22 257.08 116.43 258.96 116.43 252.11 96.22 254.16"/><polygon class="cls-2" points="96.22 242.68 96.22 245.59 116.43 247.48 116.43 240.63 96.22 242.68"/><polygon class="cls-2" points="96.22 231.19 96.22 234.11 116.43 235.99 116.43 229.14 96.22 231.19"/><polygon class="cls-2" points="96.22 219.71 96.22 222.62 116.43 224.51 116.43 217.66 96.22 219.71"/><polygon class="cls-2" points="96.22 208.22 96.22 211.14 116.43 213.03 116.43 206.17 96.22 208.22"/><polygon class="cls-2" points="96.22 196.74 96.22 199.66 116.43 201.54 116.43 194.69 96.22 196.74"/><polygon class="cls-2" points="96.22 185.25 96.22 188.17 116.43 190.06 116.43 183.21 96.22 185.25"/><polygon class="cls-2" points="96.22 173.77 96.22 176.69 116.43 178.57 116.43 171.72 96.22 173.77"/><polygon class="cls-2" points="96.22 162.29 96.22 165.2 116.43 167.09 116.43 160.24 96.22 162.29"/><polygon class="cls-2" points="96.22 150.8 96.22 153.72 116.43 155.61 116.43 148.75 96.22 150.8"/><polygon class="cls-2" points="96.22 139.32 96.22 142.24 116.43 144.12 116.43 137.27 96.22 139.32"/><polygon class="cls-2" points="96.22 127.84 96.22 130.75 116.43 132.64 116.43 125.79 96.22 127.84"/><polygon class="cls-2" points="96.22 116.35 96.22 119.27 116.43 121.15 116.43 114.3 96.22 116.35"/><polygon class="cls-2" points="96.22 104.87 96.22 107.78 116.43 109.67 116.43 102.82 96.22 104.87"/><polygon class="cls-2" points="96.22 93.38 96.22 96.3 116.43 98.19 116.43 91.33 96.22 93.38"/><polygon class="cls-2" points="96.22 81.9 96.22 84.82 116.43 86.7 116.43 79.85 96.22 81.9"/><polygon class="cls-2" points="96.22 70.42 96.22 73.33 116.43 75.22 116.43 68.37 96.22 70.42"/><polygon class="cls-2" points="96.22 58.93 96.22 61.85 116.43 63.73 116.43 56.88 96.22 58.93"/><polygon class="cls-2" points="96.22 47.45 96.22 50.37 116.43 52.25 116.43 45.4 96.22 47.45"/><polygon class="cls-2" points="96.22 35.96 96.22 38.88 116.43 40.77 116.43 33.91 96.22 35.96"/><polygon class="cls-2" points="96.22 24.48 96.22 27.4 116.43 29.28 116.43 22.43 96.22 24.48"/><polygon class="cls-2" points="96.22 13 96.22 15.91 116.43 17.8 116.43 10.95 96.22 13"/><polygon class="cls-2" points="250.11 15.75 250.11 12.83 229.9 10.95 229.9 17.8 250.11 15.75"/><polygon class="cls-2" points="250.11 27.23 250.11 24.32 229.9 22.43 229.9 29.28 250.11 27.23"/><polygon class="cls-2" points="250.11 38.72 250.11 35.8 229.9 33.91 229.9 40.77 250.11 38.72"/><polygon class="cls-2" points="250.11 50.2 250.11 47.28 229.9 45.4 229.9 52.25 250.11 50.2"/><polygon class="cls-2" points="250.11 61.69 250.11 58.77 229.9 56.88 229.9 63.73 250.11 61.69"/><polygon class="cls-2" points="250.11 73.17 250.11 70.25 229.9 68.37 229.9 75.22 250.11 73.17"/><polygon class="cls-2" points="250.11 84.65 250.11 81.74 229.9 79.85 229.9 86.7 250.11 84.65"/><polygon class="cls-2" points="250.11 96.14 250.11 93.22 229.9 91.33 229.9 98.19 250.11 96.14"/><polygon class="cls-2" points="250.11 107.62 250.11 104.7 229.9 102.82 229.9 109.67 250.11 107.62"/><polygon class="cls-2" points="250.11 119.11 250.11 116.19 229.9 114.3 229.9 121.15 250.11 119.11"/><polygon class="cls-2" points="250.11 130.59 250.11 127.67 229.9 125.79 229.9 132.64 250.11 130.59"/><polygon class="cls-2" points="250.11 142.07 250.11 139.16 229.9 137.27 229.9 144.12 250.11 142.07"/><polygon class="cls-2" points="250.11 153.56 250.11 150.64 229.9 148.75 229.9 155.61 250.11 153.56"/><polygon class="cls-2" points="250.11 165.04 250.11 162.12 229.9 160.24 229.9 167.09 250.11 165.04"/><polygon class="cls-2" points="250.11 176.53 250.11 173.61 229.9 171.72 229.9 178.57 250.11 176.53"/><polygon class="cls-2" points="250.11 188.01 250.11 185.09 229.9 183.21 229.9 190.06 250.11 188.01"/><polygon class="cls-2" points="250.11 199.49 250.11 196.58 229.9 194.69 229.9 201.54 250.11 199.49"/><polygon class="cls-2" points="250.11 210.98 250.11 208.06 229.9 206.17 229.9 213.03 250.11 210.98"/><polygon class="cls-2" points="250.11 222.46 250.11 219.54 229.9 217.66 229.9 224.51 250.11 222.46"/><polygon class="cls-2" points="250.11 233.94 250.11 231.03 229.9 229.14 229.9 235.99 250.11 233.94"/><polygon class="cls-2" points="250.11 245.43 250.11 242.51 229.9 240.63 229.9 247.48 250.11 245.43"/><polygon class="cls-2" points="250.11 256.91 250.11 254 229.9 252.11 229.9 258.96 250.11 256.91"/><polygon class="cls-2" points="250.11 268.4 250.11 265.48 229.9 263.59 229.9 270.44 250.11 268.4"/><polygon class="cls-2" points="250.11 279.88 250.11 276.96 229.9 275.08 229.9 281.93 250.11 279.88"/><path class="cls-3" d="M153.69,314.43a.66.66,0,0,1,.48.21l1.33,1.44a7.3,7.3,0,0,1-2.71,2.08,9.18,9.18,0,0,1-3.85.73,9.09,9.09,0,0,1-3.62-.69,7.86,7.86,0,0,1-2.74-1.91,8.44,8.44,0,0,1-1.75-2.93,11.06,11.06,0,0,1-.6-3.71,10.4,10.4,0,0,1,.64-3.73,8.69,8.69,0,0,1,1.84-2.92,8.19,8.19,0,0,1,2.82-1.91,9.41,9.41,0,0,1,3.62-.68,9,9,0,0,1,3.51.65,8.37,8.37,0,0,1,2.6,1.7l-1.12,1.57a1.07,1.07,0,0,1-.26.26.76.76,0,0,1-.43.11.77.77,0,0,1-.39-.11,4.52,4.52,0,0,1-.44-.26l-.54-.34a5,5,0,0,0-.73-.35,6,6,0,0,0-1-.26,6.66,6.66,0,0,0-1.25-.1,5.53,5.53,0,0,0-2.22.43,4.66,4.66,0,0,0-1.73,1.25,5.64,5.64,0,0,0-1.13,2,8.5,8.5,0,0,0-.4,2.69,8.07,8.07,0,0,0,.43,2.71,5.94,5.94,0,0,0,1.17,2,4.9,4.9,0,0,0,1.74,1.25,5.5,5.5,0,0,0,2.15.43,9.23,9.23,0,0,0,1.24-.08,6,6,0,0,0,1-.23,4.83,4.83,0,0,0,.89-.42,5.68,5.68,0,0,0,.83-.63,1.15,1.15,0,0,1,.26-.19A.72.72,0,0,1,153.69,314.43Z"/><path class="cls-3" d="M163.69,300.61a10.14,10.14,0,0,1,3.14.43,5.92,5.92,0,0,1,2.18,1.19,4.58,4.58,0,0,1,1.28,1.82,6.72,6.72,0,0,1,0,4.73,4.85,4.85,0,0,1-1.31,1.88,6,6,0,0,1-2.19,1.23,9.86,9.86,0,0,1-3.08.44h-2.52v6.36h-3.36V300.61Zm0,9.09a5.21,5.21,0,0,0,1.61-.23,3,3,0,0,0,1.14-.66,2.65,2.65,0,0,0,.68-1.05,4.08,4.08,0,0,0,.23-1.38,3.65,3.65,0,0,0-.23-1.32,2.63,2.63,0,0,0-.67-1,3.13,3.13,0,0,0-1.14-.63,5.57,5.57,0,0,0-1.62-.22h-2.52v6.49Z"/><path class="cls-3" d="M180.56,316a4.44,4.44,0,0,0,1.75-.33,3.64,3.64,0,0,0,1.29-.91,4.08,4.08,0,0,0,.81-1.43,6.07,6.07,0,0,0,.28-1.87V300.61h3.36v10.83a8.26,8.26,0,0,1-.52,3,6.65,6.65,0,0,1-3.84,3.91,9.06,9.06,0,0,1-6.27,0,6.65,6.65,0,0,1-3.84-3.91,8.26,8.26,0,0,1-.52-3V300.61h3.36v10.82a5.78,5.78,0,0,0,.29,1.87,3.79,3.79,0,0,0,.81,1.43,3.58,3.58,0,0,0,1.3.92A4.35,4.35,0,0,0,180.56,316Z"/><path class="cls-4" d="M14.29,96.23a3.3,3.3,0,0,1,3,1.62,9.1,9.1,0,0,1,1,4.79,9.1,9.1,0,0,1-1,4.79,3.3,3.3,0,0,1-3,1.62,3.3,3.3,0,0,1-3-1.62,9.1,9.1,0,0,1-1-4.79,9.1,9.1,0,0,1,1-4.79A3.3,3.3,0,0,1,14.29,96.23Zm0,1.33a1.85,1.85,0,0,0-1.74,1.25,9.53,9.53,0,0,0-.58,3.83,13.75,13.75,0,0,0,.16,2.19L16,98.66A1.9,1.9,0,0,0,14.29,97.56Zm0,10.16a1.88,1.88,0,0,0,1.76-1.25,9.75,9.75,0,0,0,.58-3.83,16.71,16.71,0,0,0-.17-2.47l-4,6.18A2,2,0,0,0,14.29,107.72Z"/><path class="cls-4" d="M24.53,96.23a3.32,3.32,0,0,1,3,1.62,9.1,9.1,0,0,1,1,4.79,9.1,9.1,0,0,1-1,4.79,3.32,3.32,0,0,1-3,1.62,3.32,3.32,0,0,1-3-1.62,9.21,9.21,0,0,1-1-4.79,9.21,9.21,0,0,1,1-4.79A3.32,3.32,0,0,1,24.53,96.23Zm0,1.33a1.87,1.87,0,0,0-1.75,1.25,9.71,9.71,0,0,0-.58,3.83,15,15,0,0,0,.16,2.19l3.87-6.17A1.91,1.91,0,0,0,24.53,97.56Zm0,10.16a1.86,1.86,0,0,0,1.75-1.25,9.56,9.56,0,0,0,.58-3.83,15.45,15.45,0,0,0-.17-2.47l-4,6.18A2,2,0,0,0,24.53,107.72Z"/><path class="cls-4" d="M31.89,107.4H34.5V98l-3.12,1.5V97.93l3.1-1.47h1.68V107.4h2.57v1.41H31.89Z"/><path class="cls-4" d="M45,96.23a3.32,3.32,0,0,1,3,1.62,9.1,9.1,0,0,1,1,4.79,9.1,9.1,0,0,1-1,4.79,3.59,3.59,0,0,1-6,0,9.21,9.21,0,0,1-1-4.79,9.21,9.21,0,0,1,1-4.79A3.32,3.32,0,0,1,45,96.23Zm0,1.33a1.87,1.87,0,0,0-1.75,1.25,9.71,9.71,0,0,0-.58,3.83,15,15,0,0,0,.16,2.19l3.87-6.17A1.91,1.91,0,0,0,45,97.56Zm0,10.16a1.86,1.86,0,0,0,1.75-1.25,9.56,9.56,0,0,0,.58-3.83,15.45,15.45,0,0,0-.17-2.47l-3.95,6.18A2,2,0,0,0,45,107.72Z"/><path class="cls-4" d="M14.29,116.63a3.3,3.3,0,0,1,3,1.62,11.76,11.76,0,0,1,0,9.58,3.3,3.3,0,0,1-3,1.62,3.3,3.3,0,0,1-3-1.62,11.76,11.76,0,0,1,0-9.58A3.3,3.3,0,0,1,14.29,116.63Zm0,1.33a1.85,1.85,0,0,0-1.74,1.25A9.53,9.53,0,0,0,12,123a13.75,13.75,0,0,0,.16,2.19L16,119.06A1.9,1.9,0,0,0,14.29,118Zm0,10.16a1.88,1.88,0,0,0,1.76-1.25,9.75,9.75,0,0,0,.58-3.83,16.71,16.71,0,0,0-.17-2.47l-4,6.18A2,2,0,0,0,14.29,128.12Z"/><path class="cls-4" d="M24.53,116.63a3.32,3.32,0,0,1,3,1.62,11.76,11.76,0,0,1,0,9.58,3.32,3.32,0,0,1-3,1.62,3.32,3.32,0,0,1-3-1.62,11.86,11.86,0,0,1,0-9.58A3.32,3.32,0,0,1,24.53,116.63Zm0,1.33a1.87,1.87,0,0,0-1.75,1.25A9.71,9.71,0,0,0,22.2,123a15,15,0,0,0,.16,2.19l3.87-6.17A1.91,1.91,0,0,0,24.53,118Zm0,10.16a1.86,1.86,0,0,0,1.75-1.25,9.56,9.56,0,0,0,.58-3.83,15.45,15.45,0,0,0-.17-2.47l-4,6.18A2,2,0,0,0,24.53,128.12Z"/><path class="cls-4" d="M31.89,127.8H34.5v-9.36l-3.12,1.5v-1.61l3.1-1.47h1.68V127.8h2.57v1.41H31.89Z"/><path class="cls-4" d="M45,116.63a3.32,3.32,0,0,1,3,1.62,11.76,11.76,0,0,1,0,9.58,3.59,3.59,0,0,1-6,0,11.86,11.86,0,0,1,0-9.58A3.32,3.32,0,0,1,45,116.63ZM45,118a1.87,1.87,0,0,0-1.75,1.25,9.71,9.71,0,0,0-.58,3.83,15,15,0,0,0,.16,2.19l3.87-6.17A1.91,1.91,0,0,0,45,118Zm0,10.16a1.86,1.86,0,0,0,1.75-1.25,9.56,9.56,0,0,0,.58-3.83,15.45,15.45,0,0,0-.17-2.47l-3.95,6.18A2,2,0,0,0,45,128.12Z"/><path class="cls-4" d="M14.29,137a3.3,3.3,0,0,1,3,1.62,11.76,11.76,0,0,1,0,9.58,3.3,3.3,0,0,1-3,1.62,3.3,3.3,0,0,1-3-1.62,11.76,11.76,0,0,1,0-9.58A3.3,3.3,0,0,1,14.29,137Zm0,1.33a1.85,1.85,0,0,0-1.74,1.25,9.53,9.53,0,0,0-.58,3.83,13.75,13.75,0,0,0,.16,2.19L16,139.46A1.9,1.9,0,0,0,14.29,138.36Zm0,10.16a1.88,1.88,0,0,0,1.76-1.25,9.75,9.75,0,0,0,.58-3.83,16.71,16.71,0,0,0-.17-2.47l-4,6.18A2,2,0,0,0,14.29,148.52Z"/><path class="cls-4" d="M21.66,148.2h2.6v-9.36l-3.12,1.5v-1.61l3.11-1.47h1.67V148.2H28.5v1.41H21.66Z"/><path class="cls-4" d="M34.76,137a3.3,3.3,0,0,1,3,1.62,11.76,11.76,0,0,1,0,9.58,3.58,3.58,0,0,1-6,0,11.76,11.76,0,0,1,0-9.58A3.3,3.3,0,0,1,34.76,137Zm0,1.33A1.85,1.85,0,0,0,33,139.61a9.53,9.53,0,0,0-.58,3.83,13.75,13.75,0,0,0,.16,2.19l3.86-6.17A1.9,1.9,0,0,0,34.76,138.36Zm0,10.16a1.88,1.88,0,0,0,1.76-1.25,9.75,9.75,0,0,0,.58-3.83,16.71,16.71,0,0,0-.17-2.47l-4,6.18A2,2,0,0,0,34.76,148.52Z"/><path class="cls-4" d="M42.13,148.2h2.6v-9.36l-3.12,1.5v-1.61l3.11-1.47h1.67V148.2H49v1.41H42.13Z"/><path class="cls-5" d="M281.35,137.39a3.32,3.32,0,0,1,3,1.62,11.76,11.76,0,0,1,0,9.58,3.6,3.6,0,0,1-6,0,11.86,11.86,0,0,1,0-9.58A3.32,3.32,0,0,1,281.35,137.39Zm0,1.33A1.86,1.86,0,0,0,279.6,140a9.71,9.71,0,0,0-.58,3.83,15,15,0,0,0,.16,2.19l3.87-6.17A1.9,1.9,0,0,0,281.35,138.72Zm0,10.16a1.86,1.86,0,0,0,1.75-1.26,9.48,9.48,0,0,0,.58-3.82,15.58,15.58,0,0,0-.17-2.48l-3.95,6.19A2,2,0,0,0,281.35,148.88Z"/><path class="cls-5" d="M288.71,148.56h2.61V139.2l-3.12,1.5v-1.61l3.1-1.48H293v10.95h2.57V150h-6.84Z"/><path class="cls-5" d="M301.82,137.39a3.32,3.32,0,0,1,3,1.62,11.76,11.76,0,0,1,0,9.58,3.6,3.6,0,0,1-6,0,11.86,11.86,0,0,1,0-9.58A3.32,3.32,0,0,1,301.82,137.39Zm0,1.33a1.86,1.86,0,0,0-1.75,1.25,9.71,9.71,0,0,0-.58,3.83,15,15,0,0,0,.16,2.19l3.87-6.17A1.9,1.9,0,0,0,301.82,138.72Zm0,10.16a1.86,1.86,0,0,0,1.75-1.26,9.48,9.48,0,0,0,.58-3.82,15.58,15.58,0,0,0-.17-2.48l-4,6.19A2,2,0,0,0,301.82,148.88Z"/><path class="cls-5" d="M312.05,137.39a3.3,3.3,0,0,1,3,1.62,11.76,11.76,0,0,1,0,9.58,3.59,3.59,0,0,1-6,0,11.76,11.76,0,0,1,0-9.58A3.3,3.3,0,0,1,312.05,137.39Zm0,1.33a1.84,1.84,0,0,0-1.74,1.25,9.53,9.53,0,0,0-.58,3.83,13.75,13.75,0,0,0,.16,2.19l3.86-6.17A1.89,1.89,0,0,0,312.05,138.72Zm0,10.16a1.87,1.87,0,0,0,1.76-1.26,9.66,9.66,0,0,0,.58-3.82,16.85,16.85,0,0,0-.17-2.48l-4,6.19A2,2,0,0,0,312.05,148.88Z"/><g id="c110_arrows" data-name="c110 arrows"><path class="cls-6" d="M79.53,165.62c-2-1.19-20.68-12.18-20.68-12.18s-2.5-1.52-2.5.49v5.23L0,159l0,15H56.94v5.66c0,1.66,2.39.13,2.39.13l20.06-12.48S81,166.49,79.53,165.62Z"/></g><g id="c110_arrows-2" data-name="c110 arrows"><path class="cls-6" d="M347.17,165.62c-2-1.19-20.69-12.18-20.69-12.18s-2.5-1.52-2.5.49v5.23L267.65,159l0,15h56.94v5.66c0,1.66,2.39.13,2.39.13L347,167.31S348.6,166.49,347.17,165.62Z"/></g></svg>